<svg width="78" height="26" viewBox="0 0 78 26" fill="none" xmlns="http://www.w3.org/2000/svg">
<path d="M24 14.5H16.5V22H24V14.5ZM22.5 20.5H18V16H22.5V20.5ZM24 4H16.5V11.5H24V4ZM22.5 10H18V5.5H22.5V10ZM0 5.5V7H13.5V5.5H0ZM4.5 10H13.5V8.5H4.5V10ZM13.5 16H0V17.5H13.5V16ZM13.5 19H4.5V20.5H13.5V19Z" fill="#A4A5B8"/>
<rect x="48.5" y="0.5" width="29" height="25" rx="1.5" fill="#6F01D0" fill-opacity="0.11"/>
<rect x="48.5" y="0.5" width="29" height="25" rx="1.5" stroke="#6F01D0"/>
<path d="M52.4445 19.0833V5.83772H65.6901V19.0833H52.4445ZM67.8977 11.3567V5.83772H73.4167V11.3567H67.8977ZM69.0015 10.2529H72.3129V6.94152H69.0015V10.2529ZM53.5483 17.9795H64.5863V6.94152H53.5483V17.9795ZM54.864 15.666H63.2705L60.585 12.0786L58.5154 14.8381L56.9976 12.8237L54.864 15.666ZM67.8977 19.0833V13.5643H73.4167V19.0833H67.8977ZM69.0015 17.9795H72.3129V14.6681H69.0015V17.9795Z" fill="#6F01D0"/>
</svg>
